# File created by Blade
# Date/Time:  Fri Jan 16 19:32:17 2015
# Frame Rate: 120.000 fps
#------------------------------------------------------
:FULLY-SPECIFIED
:DEGREES
1064
root 19.543226 35.478713 -20.899147 11.183706 8.443578 -0.563388
Spine -23.848043 -3.951919 2.645230
Head 13.314036 49.979283 7.352679
LeftShoulder -11.376112 -30.299045 17.662608
LeftArm 10.044529 13.187763 -6.418018
LeftForeArm 22.269436 -0.000000 2.198790
LeftHand -5.816564 -0.000000 4.810752
LeftHandThumb1 -26.253704 0.000000 33.147579
RightShoulder -10.019396 -1.954883 -15.262424
RightArm -359.500288 44.302192 -350.143963
RightForeArm -35.926007 -0.000000 3.059794
RightHand -4.484775 -0.000000 7.027506
RightHandThumb1 -24.326973 -0.000000 -32.862282
LeftUpLeg -3.372183 2.576264 1.367501
LeftLeg -6.683947 -0.000000 0.000000
LeftFoot -19.417588 27.965604 -11.641517
LeftToeBase 26.334252 -0.000000 -0.000000
RightUpLeg -1.730819 -14.640800 -0.210474
RightLeg -4.381612 -0.000000 0.000000
RightFoot -21.909328 -24.574261 18.309967
RightToeBase 24.917800 -0.000000 -0.000000
1065
root 19.540924 35.479491 -20.902632 11.193769 8.425450 -0.566492
Spine -23.826061 -3.943965 2.639880
Head 13.212978 49.691492 7.253390
LeftShoulder -11.380133 -30.338950 17.656224
LeftArm 10.053311 13.161481 -6.405306
LeftForeArm 22.267088 -0.000000 2.178984
LeftHand -5.799395 -0.000000 4.742111
LeftHandThumb1 -26.253704 0.000000 33.147579
RightShoulder -9.966860 -1.909397 -15.278100
RightArm -359.540484 44.312521 -350.143812
RightForeArm -36.059082 -0.000000 3.088122
RightHand -4.610040 -0.000000 7.026898
RightHandThumb1 -24.326973 -0.000000 -32.862282
LeftUpLeg -3.380269 2.608441 1.364314
LeftLeg -6.700976 -0.000000 0.000000
LeftFoot -19.395952 27.977152 -11.654292
LeftToeBase 26.301849 -0.000000 -0.000000
RightUpLeg -1.742526 -14.626646 -0.203873
RightLeg -4.397274 -0.000000 0.000000
RightFoot -21.888883 -24.553518 18.309709
RightToeBase 24.930385 -0.000000 -0.000000
1066
root 19.536827 35.479707 -20.905327 11.195800 8.427996 -0.567923
Spine -23.800360 -3.954035 2.624944
Head 13.120674 49.332998 7.181329
LeftShoulder -11.374170 -30.343537 17.648830
LeftArm 10.083195 13.097505 -6.394735
LeftForeArm 22.288852 -0.000000 2.131317
LeftHand -5.773346 0.000000 4.702900
LeftHandThumb1 -26.253704 0.000000 33.147579
RightShoulder -9.956597 -1.989041 -15.235468
RightArm -359.441000 44.422240 -350.081629
RightForeArm -35.971222 -0.000000 3.056815
RightHand -4.559664 0.000000 6.934594
RightHandThumb1 -24.326973 -0.000000 -32.862282
LeftUpLeg -3.384769 2.620042 1.371056
LeftLeg -6.705892 -0.000000 0.000000
LeftFoot -19.386290 27.958632 -11.647559
LeftToeBase 26.351292 -0.000000 -0.000000
RightUpLeg -1.736591 -14.645406 -0.195048
RightLeg -4.423879 -0.000000 0.000000
RightFoot -21.856834 -24.546326 18.280019
RightToeBase 24.921827 -0.000000 -0.000000
1067
root 19.530689 35.480167 -20.909392 11.211945 8.441344 -0.563970
Spine -23.792637 -3.983479 2.597260
Head 13.022355 48.860360 7.089606
LeftShoulder -11.366076 -30.375923 17.663507
LeftArm 10.098658 13.058323 -6.388441
LeftForeArm 22.270288 0.000000 2.091281
LeftHand -5.762245 0.000000 4.669124
LeftHandThumb1 -26.253704 0.000000 33.147579
RightShoulder -9.917025 -1.999476 -15.215260
RightArm -359.424811 44.487734 -350.044981
RightForeArm -35.989424 -0.000000 3.054654
RightHand -4.592058 -0.000000 6.965145
RightHandThumb1 -24.326973 -0.000000 -32.862282
LeftUpLeg -3.408147 2.626451 1.374335
LeftLeg -6.712895 -0.000000 0.000000
LeftFoot -19.364910 27.948637 -11.661401
LeftToeBase 26.304193 -0.000000 -0.000000
RightUpLeg -1.744177 -14.664153 -0.179582
RightLeg -4.456812 -0.000000 0.000000
RightFoot -21.842898 -24.555307 18.271551
RightToeBase 24.929576 -0.000000 -0.000000
1068
root 19.526898 35.480965 -20.912105 11.222723 8.440533 -0.563891
Spine -23.779378 -3.991189 2.570531
Head 12.870720 48.253266 6.943731
LeftShoulder -11.370470 -30.367976 17.677439
LeftArm 10.140241 12.974917 -6.395807
LeftForeArm 22.354459 -0.000000 2.057152
LeftHand -5.791311 -0.000000 4.626512
LeftHandThumb1 -26.253704 0.000000 33.147579
RightShoulder -9.878843 -1.975126 -15.201034
RightArm -359.427357 44.499431 -350.028063
RightForeArm -35.957892 -0.000000 3.058175
RightHand -4.540060 -0.000000 7.071975
RightHandThumb1 -24.326973 -0.000000 -32.862282
LeftUpLeg -3.423111 2.649347 1.376207
LeftLeg -6.715856 -0.000000 0.000000
LeftFoot -19.351569 27.935144 -11.659984
LeftToeBase 26.320370 -0.000000 -0.000000
RightUpLeg -1.745842 -14.663005 -0.169983
RightLeg -4.487612 -0.000000 0.000000
RightFoot -21.812726 -24.521900 18.301668
RightToeBase 24.852233 -0.000000 -0.000000
1069
root 19.524420 35.481460 -20.914564 11.233009 8.428999 -0.557163
Spine -23.764718 -3.982310 2.531494
Head 12.712116 47.647931 6.821972
LeftShoulder -11.350141 -30.389731 17.685930
LeftArm 10.149064 12.961475 -6.393951
LeftForeArm 22.378053 -0.000000 2.043993
LeftHand -5.841214 -0.000000 4.587769
LeftHandThumb1 -26.253704 0.000000 33.147579
RightShoulder -9.851557 -1.973042 -15.189135
RightArm -359.395704 44.461546 -349.987901
RightForeArm -35.931005 -0.000000 3.026528
RightHand -4.534707 -0.000000 6.990102
RightHandThumb1 -24.326973 -0.000000 -32.862282
LeftUpLeg -3.432288 2.690099 1.365044
LeftLeg -6.725204 -0.000000 0.000000
LeftFoot -19.334395 27.917572 -11.659812
LeftToeBase 26.371004 -0.000000 -0.000000
RightUpLeg -1.743356 -14.638751 -0.174204
RightLeg -4.518451 -0.000000 0.000000
RightFoot -21.803190 -24.566772 18.261979
RightToeBase 24.908664 -0.000000 -0.000000
1070
root 19.523252 35.482232 -20.915946 11.232253 8.421948 -0.543639
Spine -23.736990 -3.997046 2.497911
Head 12.551468 46.867402 6.653375
LeftShoulder -11.380508 -30.369030 17.701547
LeftArm 10.207644 12.851450 -6.388601
LeftForeArm 22.399708 0.000000 2.006133
LeftHand -5.774314 -0.000000 4.493056
LeftHandThumb1 -26.253704 0.000000 33.147579
RightShoulder -9.808479 -1.945116 -15.171508
RightArm -359.348284 44.432295 -349.965279
RightForeArm -35.878248 0.000000 2.958764
RightHand -4.542989 -0.000000 6.949496
RightHandThumb1 -24.326973 -0.000000 -32.862282
LeftUpLeg -3.419999 2.716775 1.346688
LeftLeg -6.747502 -0.000000 0.000000
LeftFoot -19.304710 27.907537 -11.679951
LeftToeBase 26.302327 -0.000000 -0.000000
RightUpLeg -1.722885 -14.629920 -0.191095
RightLeg -4.556334 -0.000000 0.000000
RightFoot -21.784136 -24.564016 18.250640
RightToeBase 24.938945 -0.000000 -0.000000
1071
root 19.519553 35.483226 -20.917983 11.237560 8.416045 -0.541117
Spine -23.723092 -4.001796 2.458243
Head 12.368511 46.016890 6.508114
LeftShoulder -11.362451 -30.366093 17.710280
LeftArm 10.231952 12.850159 -6.371456
LeftForeArm 22.473529 0.000000 1.967165
LeftHand -5.807391 -0.000000 4.476452
LeftHandThumb1 -26.253704 0.000000 33.147579
RightShoulder -9.762725 -1.917926 -15.150084
RightArm -359.363993 44.452987 -349.966065
RightForeArm -35.985141 0.000000 2.950808
RightHand -4.481010 -0.000000 7.018571
RightHandThumb1 -24.326973 -0.000000 -32.862282
LeftUpLeg -3.423229 2.722397 1.355800
LeftLeg -6.743846 -0.000000 0.000000
LeftFoot -19.324644 27.821902 -11.756802
LeftToeBase 26.313827 -0.000000 -0.000000
RightUpLeg -1.717944 -14.625578 -0.185983
RightLeg -4.586410 -0.000000 0.000000
RightFoot -21.754913 -24.567548 18.254340
RightToeBase 24.919855 -0.000000 -0.000000
1072
root 19.517051 35.483739 -20.920300 11.242545 8.413158 -0.529028
Spine -23.696029 -4.010174 2.407750
Head 12.133974 45.013963 6.273955
LeftShoulder -11.363416 -30.386205 17.734410
LeftArm 10.254096 12.837220 -6.351794
LeftForeArm 22.534255 0.000000 1.958932
LeftHand -5.765431 0.000000 4.373861
LeftHandThumb1 -26.253704 0.000000 33.147579
RightShoulder -9.762526 -1.926899 -15.133479
RightArm -359.281154 44.564106 -349.848693
RightForeArm -35.983221 -0.000000 2.995825
RightHand -4.545079 -0.000000 7.000912
RightHandThumb1 -24.326973 -0.000000 -32.862282
LeftUpLeg -3.427632 2.749955 1.333480
LeftLeg -6.766245 -0.000000 0.000000
LeftFoot -19.280246 27.887158 -11.736648
LeftToeBase 26.240178 -0.000000 -0.000000
RightUpLeg -1.707627 -14.617942 -0.194596
RightLeg -4.621482 -0.000000 0.000000
RightFoot -21.747118 -24.575371 18.244964
RightToeBase 24.954507 -0.000000 -0.000000
1073
root 19.511731 35.483980 -20.920696 11.257260 8.412790 -0.526118
Spine -23.699861 -4.025747 2.359160
Head 11.955937 44.022859 6.139641
LeftShoulder -11.351064 -30.368726 17.763673
LeftArm 10.255514 12.811677 -6.325834
LeftForeArm 22.571415 -0.000000 2.000833
LeftHand -5.713105 -0.000000 4.238209
LeftHandThumb1 -26.253704 0.000000 33.147579
RightShoulder -9.753796 -1.962475 -15.107603
RightArm -359.198253 44.531606 -349.767227
RightForeArm -35.902003 -0.000000 2.971994
RightHand -4.503474 -0.000000 7.025544
RightHandThumb1 -24.326973 -0.000000 -32.862282
LeftUpLeg -3.440695 2.762847 1.344799
LeftLeg -6.760177 -0.000000 0.000000
LeftFoot -19.304982 27.802220 -11.802889
LeftToeBase 26.258288 -0.000000 -0.000000
RightUpLeg -1.702701 -14.610968 -0.183812
RightLeg -4.666482 -0.000000 0.000000
RightFoot -21.732244 -24.600283 18.246939
RightToeBase 24.929094 -0.000000 -0.000000
1074
root 19.508560 35.484684 -20.921930 11.259875 8.412986 -0.521227
Spine -23.684250 -4.039668 2.310587
Head 11.783058 42.932339 5.987079
LeftShoulder -11.331790 -30.386971 17.781107
LeftArm 10.261704 12.821419 -6.284633
LeftForeArm 22.630189 -0.000000 2.040764
LeftHand -5.772322 -0.000000 4.057490
LeftHandThumb1 -26.253704 0.000000 33.147579
RightShoulder -9.728725 -1.968444 -15.052534
RightArm -359.127580 44.471086 -349.770487
RightForeArm -35.863315 0.000000 2.865346
RightHand -4.408115 0.000000 7.077916
RightHandThumb1 -24.326973 -0.000000 -32.862282
LeftUpLeg -3.444684 2.784041 1.340703
LeftLeg -6.763427 -0.000000 0.000000
LeftFoot -19.290339 27.780853 -11.811284
LeftToeBase 26.229194 -0.000000 -0.000000
RightUpLeg -1.692617 -14.603845 -0.184935
RightLeg -4.691067 -0.000000 0.000000
RightFoot -21.711842 -24.591253 18.240578
RightToeBase 24.931558 -0.000000 -0.000000
1075
root 19.506076 35.485171 -20.923423 11.268540 8.412643 -0.513405
Spine -23.675965 -4.047902 2.260822
Head 11.577203 41.798286 5.816270
LeftShoulder -11.312813 -30.360124 17.801719
LeftArm 10.274103 12.803455 -6.275442
LeftForeArm 22.521553 -0.000000 2.064521
LeftHand -5.801055 0.000000 4.026644
LeftHandThumb1 -26.253704 0.000000 33.147579
RightShoulder -9.736730 -1.992212 -15.030314
RightArm -359.005110 44.475162 -349.655119
RightForeArm -35.753054 -0.000000 2.870766
RightHand -4.496925 0.000000 7.069082
RightHandThumb1 -24.326973 -0.000000 -32.862282
LeftUpLeg -3.449523 2.778918 1.336664
LeftLeg -6.775171 -0.000000 0.000000
LeftFoot -19.277091 27.778592 -11.843835
LeftToeBase 26.179479 -0.000000 -0.000000
RightUpLeg -1.692506 -14.599905 -0.186537
RightLeg -4.713245 -0.000000 0.000000
RightFoot -21.698809 -24.611290 18.228199
RightToeBase 24.925673 -0.000000 -0.000000
